<svg width="40" height="40" viewBox="0 0 40 40" fill="none" xmlns="http://www.w3.org/2000/svg">
<g filter="url(#filter0_d_65_1272)">
<g clip-path="url(#clip0_65_1272)">
<path d="M25.332 5.33203H14.6654C11.7198 5.33203 9.33203 7.71985 9.33203 10.6654V21.332C9.33203 24.2775 11.7198 26.6654 14.6654 26.6654H25.332C28.2775 26.6654 30.6654 24.2775 30.6654 21.332V10.6654C30.6654 7.71985 28.2775 5.33203 25.332 5.33203Z" stroke="#D5C9BE" stroke-width="2" stroke-linecap="round" stroke-linejoin="round"/>
<path d="M20 20C22.2091 20 24 18.2091 24 16C24 13.7909 22.2091 12 20 12C17.7909 12 16 13.7909 16 16C16 18.2091 17.7909 20 20 20Z" stroke="#D5C9BE" stroke-width="2" stroke-linecap="round" stroke-linejoin="round"/>
<path d="M26 10V10.001" stroke="#D5C9BE" stroke-width="2" stroke-linecap="round" stroke-linejoin="round"/>
</g>
<rect x="4.5" y="0.5" width="31" height="31" stroke="black" shape-rendering="crispEdges"/>
</g>
<defs>
<filter id="filter0_d_65_1272" x="0" y="0" width="40" height="40" filterUnits="userSpaceOnUse" color-interpolation-filters="sRGB">
<feFlood flood-opacity="0" result="BackgroundImageFix"/>
<feColorMatrix in="SourceAlpha" type="matrix" values="0 0 0 0 0 0 0 0 0 0 0 0 0 0 0 0 0 0 127 0" result="hardAlpha"/>
<feOffset dy="4"/>
<feGaussianBlur stdDeviation="2"/>
<feComposite in2="hardAlpha" operator="out"/>
<feColorMatrix type="matrix" values="0 0 0 0 0 0 0 0 0 0 0 0 0 0 0 0 0 0 0.25 0"/>
<feBlend mode="normal" in2="BackgroundImageFix" result="effect1_dropShadow_65_1272"/>
<feBlend mode="normal" in="SourceGraphic" in2="effect1_dropShadow_65_1272" result="shape"/>
</filter>
<clipPath id="clip0_65_1272">
<rect x="4" width="32" height="32" fill="white"/>
</clipPath>
</defs>
</svg>
